<svg xmlns="http://www.w3.org/2000/svg" width="1160" height="630" viewBox="0 0 1160 630" role="img"
     aria-label="webR 생태계 현황 — 구성요소별 최신 버전과 릴리스 리듬, 2026-07-06 기준">
  <rect width="1160" height="630" fill="#fffff8"/>
  <g font-family="'Nanum Myeongjo','AppleMyungjo','Noto Serif KR','Songti SC',Georgia,serif" fill="#1a1a1a">
    <text x="140" y="44" font-size="21">webR 생태계 현황 — 최신 버전과 릴리스 리듬</text>
    <text x="140" y="66" font-size="12" fill="#555">2022-07 이후 안정 릴리스를 눈금으로, 최신 릴리스를 점으로 표시 · 기준일 2026-07-06 · 자료: GitHub API</text>
    <line x1="481.6" y1="144" x2="481.6" y2="540" stroke="#eeeee0" stroke-width="1"/><text x="481.6" y="554" font-size="9" fill="#999" text-anchor="middle">2023</text><line x1="603.8" y1="144" x2="603.8" y2="540" stroke="#eeeee0" stroke-width="1"/><text x="603.8" y="554" font-size="9" fill="#999" text-anchor="middle">2024</text><line x1="726.4" y1="144" x2="726.4" y2="540" stroke="#eeeee0" stroke-width="1"/><text x="726.4" y="554" font-size="9" fill="#999" text-anchor="middle">2025</text><line x1="848.6" y1="144" x2="848.6" y2="540" stroke="#eeeee0" stroke-width="1"/><text x="848.6" y="554" font-size="9" fill="#999" text-anchor="middle">2026</text>
    <line x1="910.9" y1="144" x2="910.9" y2="540" stroke="#a4262c" stroke-width="0.6" stroke-dasharray="2 3"/><text x="910.9" y="138" font-size="8.5" fill="#a4262c" text-anchor="middle">기준일 07-06</text>
    <text x="140" y="156" font-size="10" fill="#888" font-style="italic">런타임</text><line x1="420" y1="182" x2="930" y2="182" stroke="#ddddd0" stroke-width="0.75"/><line x1="504.1" y1="178" x2="504.1" y2="186" stroke="#1a1a1a" stroke-width="0.6"/><line x1="508.1" y1="178" x2="508.1" y2="186" stroke="#1a1a1a" stroke-width="0.6"/><line x1="557.6" y1="178" x2="557.6" y2="186" stroke="#1a1a1a" stroke-width="0.6"/><line x1="566.7" y1="178" x2="566.7" y2="186" stroke="#1a1a1a" stroke-width="0.6"/><line x1="588.4" y1="178" x2="588.4" y2="186" stroke="#1a1a1a" stroke-width="0.6"/><line x1="631.0" y1="178" x2="631.0" y2="186" stroke="#1a1a1a" stroke-width="0.6"/><line x1="631.6" y1="178" x2="631.6" y2="186" stroke="#1a1a1a" stroke-width="0.6"/><line x1="637.0" y1="178" x2="637.0" y2="186" stroke="#1a1a1a" stroke-width="0.6"/><line x1="642.4" y1="178" x2="642.4" y2="186" stroke="#1a1a1a" stroke-width="0.6"/><line x1="662.8" y1="178" x2="662.8" y2="186" stroke="#1a1a1a" stroke-width="0.6"/><line x1="676.8" y1="178" x2="676.8" y2="186" stroke="#1a1a1a" stroke-width="0.6"/><line x1="688.9" y1="178" x2="688.9" y2="186" stroke="#1a1a1a" stroke-width="0.6"/><line x1="768.6" y1="178" x2="768.6" y2="186" stroke="#1a1a1a" stroke-width="0.6"/><line x1="777.3" y1="178" x2="777.3" y2="186" stroke="#1a1a1a" stroke-width="0.6"/><line x1="782.7" y1="178" x2="782.7" y2="186" stroke="#1a1a1a" stroke-width="0.6"/><line x1="783.3" y1="178" x2="783.3" y2="186" stroke="#1a1a1a" stroke-width="0.6"/><line x1="786.7" y1="178" x2="786.7" y2="186" stroke="#1a1a1a" stroke-width="0.6"/><line x1="790.4" y1="178" x2="790.4" y2="186" stroke="#1a1a1a" stroke-width="0.6"/><line x1="801.7" y1="178" x2="801.7" y2="186" stroke="#1a1a1a" stroke-width="0.6"/><line x1="817.5" y1="178" x2="817.5" y2="186" stroke="#1a1a1a" stroke-width="0.6"/><line x1="832.2" y1="178" x2="832.2" y2="186" stroke="#1a1a1a" stroke-width="0.6"/><line x1="840.6" y1="178" x2="840.6" y2="186" stroke="#1a1a1a" stroke-width="0.6"/><line x1="884.1" y1="178" x2="884.1" y2="186" stroke="#1a1a1a" stroke-width="0.6"/><line x1="894.8" y1="178" x2="894.8" y2="186" stroke="#1a1a1a" stroke-width="0.6"/><circle cx="894.8" cy="182" r="2.8" fill="#1a1a1a"/><text x="400" y="186" font-size="11.5" text-anchor="end">webR · R 런타임(WASM)</text><text x="945" y="186" font-size="10.5">v0.6.0 · 2026-05-19 <tspan fill="#a4262c" font-size="9">[live·app]</tspan></text><line x1="420" y1="218" x2="930" y2="218" stroke="#ddddd0" stroke-width="0.75"/><line x1="423.7" y1="214" x2="423.7" y2="222" stroke="#1a1a1a" stroke-width="0.6"/><line x1="433.1" y1="214" x2="433.1" y2="222" stroke="#1a1a1a" stroke-width="0.6"/><line x1="437.4" y1="214" x2="437.4" y2="222" stroke="#1a1a1a" stroke-width="0.6"/><line x1="439.8" y1="214" x2="439.8" y2="222" stroke="#1a1a1a" stroke-width="0.6"/><line x1="445.8" y1="214" x2="445.8" y2="222" stroke="#1a1a1a" stroke-width="0.6"/><line x1="448.8" y1="214" x2="448.8" y2="222" stroke="#1a1a1a" stroke-width="0.6"/><line x1="463.9" y1="214" x2="463.9" y2="222" stroke="#1a1a1a" stroke-width="0.6"/><line x1="464.2" y1="214" x2="464.2" y2="222" stroke="#1a1a1a" stroke-width="0.6"/><line x1="482.3" y1="214" x2="482.3" y2="222" stroke="#1a1a1a" stroke-width="0.6"/><line x1="489.3" y1="214" x2="489.3" y2="222" stroke="#1a1a1a" stroke-width="0.6"/><line x1="489.7" y1="214" x2="489.7" y2="222" stroke="#1a1a1a" stroke-width="0.6"/><line x1="511.1" y1="214" x2="511.1" y2="222" stroke="#1a1a1a" stroke-width="0.6"/><line x1="516.1" y1="214" x2="516.1" y2="222" stroke="#1a1a1a" stroke-width="0.6"/><line x1="522.5" y1="214" x2="522.5" y2="222" stroke="#1a1a1a" stroke-width="0.6"/><line x1="537.9" y1="214" x2="537.9" y2="222" stroke="#1a1a1a" stroke-width="0.6"/><line x1="544.2" y1="214" x2="544.2" y2="222" stroke="#1a1a1a" stroke-width="0.6"/><line x1="561.6" y1="214" x2="561.6" y2="222" stroke="#1a1a1a" stroke-width="0.6"/><line x1="567.0" y1="214" x2="567.0" y2="222" stroke="#1a1a1a" stroke-width="0.6"/><line x1="571.0" y1="214" x2="571.0" y2="222" stroke="#1a1a1a" stroke-width="0.6"/><line x1="588.8" y1="214" x2="588.8" y2="222" stroke="#1a1a1a" stroke-width="0.6"/><line x1="596.8" y1="214" x2="596.8" y2="222" stroke="#1a1a1a" stroke-width="0.6"/><line x1="609.5" y1="214" x2="609.5" y2="222" stroke="#1a1a1a" stroke-width="0.6"/><line x1="634.0" y1="214" x2="634.0" y2="222" stroke="#1a1a1a" stroke-width="0.6"/><line x1="653.1" y1="214" x2="653.1" y2="222" stroke="#1a1a1a" stroke-width="0.6"/><line x1="657.1" y1="214" x2="657.1" y2="222" stroke="#1a1a1a" stroke-width="0.6"/><line x1="673.2" y1="214" x2="673.2" y2="222" stroke="#1a1a1a" stroke-width="0.6"/><line x1="701.6" y1="214" x2="701.6" y2="222" stroke="#1a1a1a" stroke-width="0.6"/><line x1="710.7" y1="214" x2="710.7" y2="222" stroke="#1a1a1a" stroke-width="0.6"/><line x1="726.1" y1="214" x2="726.1" y2="222" stroke="#1a1a1a" stroke-width="0.6"/><line x1="731.1" y1="214" x2="731.1" y2="222" stroke="#1a1a1a" stroke-width="0.6"/><line x1="734.1" y1="214" x2="734.1" y2="222" stroke="#1a1a1a" stroke-width="0.6"/><line x1="745.2" y1="214" x2="745.2" y2="222" stroke="#1a1a1a" stroke-width="0.6"/><line x1="751.9" y1="214" x2="751.9" y2="222" stroke="#1a1a1a" stroke-width="0.6"/><line x1="757.9" y1="214" x2="757.9" y2="222" stroke="#1a1a1a" stroke-width="0.6"/><line x1="771.6" y1="214" x2="771.6" y2="222" stroke="#1a1a1a" stroke-width="0.6"/><line x1="778.3" y1="214" x2="778.3" y2="222" stroke="#1a1a1a" stroke-width="0.6"/><line x1="788.0" y1="214" x2="788.0" y2="222" stroke="#1a1a1a" stroke-width="0.6"/><line x1="798.4" y1="214" x2="798.4" y2="222" stroke="#1a1a1a" stroke-width="0.6"/><line x1="803.4" y1="214" x2="803.4" y2="222" stroke="#1a1a1a" stroke-width="0.6"/><line x1="814.8" y1="214" x2="814.8" y2="222" stroke="#1a1a1a" stroke-width="0.6"/><line x1="824.2" y1="214" x2="824.2" y2="222" stroke="#1a1a1a" stroke-width="0.6"/><line x1="850.6" y1="214" x2="850.6" y2="222" stroke="#1a1a1a" stroke-width="0.6"/><line x1="855.3" y1="214" x2="855.3" y2="222" stroke="#1a1a1a" stroke-width="0.6"/><line x1="857.7" y1="214" x2="857.7" y2="222" stroke="#1a1a1a" stroke-width="0.6"/><line x1="890.8" y1="214" x2="890.8" y2="222" stroke="#1a1a1a" stroke-width="0.6"/><line x1="901.9" y1="214" x2="901.9" y2="222" stroke="#1a1a1a" stroke-width="0.6"/><line x1="907.6" y1="214" x2="907.6" y2="222" stroke="#1a1a1a" stroke-width="0.6"/><line x1="908.9" y1="214" x2="908.9" y2="222" stroke="#1a1a1a" stroke-width="0.6"/><circle cx="908.9" cy="218" r="2.8" fill="#1a1a1a"/><text x="400" y="222" font-size="11.5" text-anchor="end">Pyodide · Python 런타임</text><text x="945" y="222" font-size="10.5">314.0.2 · 2026-06-30</text><text x="140" y="260" font-size="10" fill="#888" font-style="italic">코드 셀 저작 — Quarto 확장</text><line x1="420" y1="286" x2="930" y2="286" stroke="#ddddd0" stroke-width="0.75"/><line x1="677.5" y1="282" x2="677.5" y2="290" stroke="#1a1a1a" stroke-width="0.6"/><line x1="729.4" y1="282" x2="729.4" y2="290" stroke="#1a1a1a" stroke-width="0.6"/><line x1="859.3" y1="282" x2="859.3" y2="290" stroke="#1a1a1a" stroke-width="0.6"/><line x1="895.8" y1="282" x2="895.8" y2="290" stroke="#1a1a1a" stroke-width="0.6"/><circle cx="895.8" cy="286" r="2.8" fill="#1a1a1a"/><text x="400" y="290" font-size="11.5" text-anchor="end">Quarto Live · 코드 셀+채점+OJS</text><text x="945" y="290" font-size="10.5">v0.2.0 · 2026-05-22 <tspan fill="#a4262c" font-size="9">[live]</tspan></text><line x1="420" y1="322" x2="930" y2="322" stroke="#ddddd0" stroke-width="0.75"/><line x1="505.1" y1="318" x2="505.1" y2="326" stroke="#1a1a1a" stroke-width="0.6"/><line x1="507.4" y1="318" x2="507.4" y2="326" stroke="#1a1a1a" stroke-width="0.6"/><line x1="511.1" y1="318" x2="511.1" y2="326" stroke="#1a1a1a" stroke-width="0.6"/><line x1="515.1" y1="318" x2="515.1" y2="326" stroke="#1a1a1a" stroke-width="0.6"/><line x1="522.1" y1="318" x2="522.1" y2="326" stroke="#1a1a1a" stroke-width="0.6"/><line x1="558.0" y1="318" x2="558.0" y2="326" stroke="#1a1a1a" stroke-width="0.6"/><line x1="567.0" y1="318" x2="567.0" y2="326" stroke="#1a1a1a" stroke-width="0.6"/><line x1="567.3" y1="318" x2="567.3" y2="326" stroke="#1a1a1a" stroke-width="0.6"/><line x1="568.3" y1="318" x2="568.3" y2="326" stroke="#1a1a1a" stroke-width="0.6"/><line x1="571.0" y1="318" x2="571.0" y2="326" stroke="#1a1a1a" stroke-width="0.6"/><line x1="578.1" y1="318" x2="578.1" y2="326" stroke="#1a1a1a" stroke-width="0.6"/><line x1="587.4" y1="318" x2="587.4" y2="326" stroke="#1a1a1a" stroke-width="0.6"/><line x1="588.8" y1="318" x2="588.8" y2="326" stroke="#1a1a1a" stroke-width="0.6"/><line x1="615.6" y1="318" x2="615.6" y2="326" stroke="#1a1a1a" stroke-width="0.6"/><line x1="632.0" y1="318" x2="632.0" y2="326" stroke="#1a1a1a" stroke-width="0.6"/><line x1="662.4" y1="318" x2="662.4" y2="326" stroke="#1a1a1a" stroke-width="0.6"/><line x1="784.7" y1="318" x2="784.7" y2="326" stroke="#1a1a1a" stroke-width="0.6"/><circle cx="784.7" cy="322" r="2.8" fill="#1a1a1a"/><text x="400" y="326" font-size="11.5" text-anchor="end">quarto-webr · 코드 셀(커뮤니티)</text><text x="945" y="326" font-size="10.5">0.4.3 · 2025-06-24</text><text x="400" y="339" font-size="8.5" fill="#888" text-anchor="end">이후 12개월+ 무릴리스 — Quarto Live로 계승</text><text x="140" y="364" font-size="10" fill="#888" font-style="italic">Shiny 앱 저작 — Shinylive 세 겹</text><line x1="420" y1="390" x2="930" y2="390" stroke="#ddddd0" stroke-width="0.75"/><line x1="440.4" y1="386" x2="440.4" y2="394" stroke="#1a1a1a" stroke-width="0.6"/><line x1="441.1" y1="386" x2="441.1" y2="394" stroke="#1a1a1a" stroke-width="0.6"/><line x1="445.8" y1="386" x2="445.8" y2="394" stroke="#1a1a1a" stroke-width="0.6"/><line x1="447.5" y1="386" x2="447.5" y2="394" stroke="#1a1a1a" stroke-width="0.6"/><line x1="449.1" y1="386" x2="449.1" y2="394" stroke="#1a1a1a" stroke-width="0.6"/><line x1="459.2" y1="386" x2="459.2" y2="394" stroke="#1a1a1a" stroke-width="0.6"/><line x1="501.7" y1="386" x2="501.7" y2="394" stroke="#1a1a1a" stroke-width="0.6"/><line x1="515.8" y1="386" x2="515.8" y2="394" stroke="#1a1a1a" stroke-width="0.6"/><line x1="517.8" y1="386" x2="517.8" y2="394" stroke="#1a1a1a" stroke-width="0.6"/><line x1="520.1" y1="386" x2="520.1" y2="394" stroke="#1a1a1a" stroke-width="0.6"/><line x1="540.9" y1="386" x2="540.9" y2="394" stroke="#1a1a1a" stroke-width="0.6"/><line x1="552.6" y1="386" x2="552.6" y2="394" stroke="#1a1a1a" stroke-width="0.6"/><line x1="555.0" y1="386" x2="555.0" y2="394" stroke="#1a1a1a" stroke-width="0.6"/><line x1="560.0" y1="386" x2="560.0" y2="394" stroke="#1a1a1a" stroke-width="0.6"/><line x1="568.3" y1="386" x2="568.3" y2="394" stroke="#1a1a1a" stroke-width="0.6"/><line x1="574.4" y1="386" x2="574.4" y2="394" stroke="#1a1a1a" stroke-width="0.6"/><line x1="583.1" y1="386" x2="583.1" y2="394" stroke="#1a1a1a" stroke-width="0.6"/><line x1="592.8" y1="386" x2="592.8" y2="394" stroke="#1a1a1a" stroke-width="0.6"/><line x1="599.5" y1="386" x2="599.5" y2="394" stroke="#1a1a1a" stroke-width="0.6"/><line x1="611.9" y1="386" x2="611.9" y2="394" stroke="#1a1a1a" stroke-width="0.6"/><line x1="615.6" y1="386" x2="615.6" y2="394" stroke="#1a1a1a" stroke-width="0.6"/><line x1="624.9" y1="386" x2="624.9" y2="394" stroke="#1a1a1a" stroke-width="0.6"/><line x1="626.3" y1="386" x2="626.3" y2="394" stroke="#1a1a1a" stroke-width="0.6"/><line x1="639.3" y1="386" x2="639.3" y2="394" stroke="#1a1a1a" stroke-width="0.6"/><line x1="651.7" y1="386" x2="651.7" y2="394" stroke="#1a1a1a" stroke-width="0.6"/><line x1="653.4" y1="386" x2="653.4" y2="394" stroke="#1a1a1a" stroke-width="0.6"/><line x1="670.5" y1="386" x2="670.5" y2="394" stroke="#1a1a1a" stroke-width="0.6"/><line x1="677.2" y1="386" x2="677.2" y2="394" stroke="#1a1a1a" stroke-width="0.6"/><line x1="686.2" y1="386" x2="686.2" y2="394" stroke="#1a1a1a" stroke-width="0.6"/><line x1="693.9" y1="386" x2="693.9" y2="394" stroke="#1a1a1a" stroke-width="0.6"/><line x1="705.0" y1="386" x2="705.0" y2="394" stroke="#1a1a1a" stroke-width="0.6"/><line x1="709.7" y1="386" x2="709.7" y2="394" stroke="#1a1a1a" stroke-width="0.6"/><line x1="721.0" y1="386" x2="721.0" y2="394" stroke="#1a1a1a" stroke-width="0.6"/><line x1="721.7" y1="386" x2="721.7" y2="394" stroke="#1a1a1a" stroke-width="0.6"/><line x1="746.8" y1="386" x2="746.8" y2="394" stroke="#1a1a1a" stroke-width="0.6"/><line x1="750.5" y1="386" x2="750.5" y2="394" stroke="#1a1a1a" stroke-width="0.6"/><line x1="752.2" y1="386" x2="752.2" y2="394" stroke="#1a1a1a" stroke-width="0.6"/><line x1="758.9" y1="386" x2="758.9" y2="394" stroke="#1a1a1a" stroke-width="0.6"/><line x1="803.8" y1="386" x2="803.8" y2="394" stroke="#1a1a1a" stroke-width="0.6"/><line x1="811.5" y1="386" x2="811.5" y2="394" stroke="#1a1a1a" stroke-width="0.6"/><line x1="840.6" y1="386" x2="840.6" y2="394" stroke="#1a1a1a" stroke-width="0.6"/><line x1="876.4" y1="386" x2="876.4" y2="394" stroke="#1a1a1a" stroke-width="0.6"/><line x1="888.8" y1="386" x2="888.8" y2="394" stroke="#1a1a1a" stroke-width="0.6"/><line x1="895.5" y1="386" x2="895.5" y2="394" stroke="#1a1a1a" stroke-width="0.6"/><line x1="897.9" y1="386" x2="897.9" y2="394" stroke="#1a1a1a" stroke-width="0.6"/><line x1="899.2" y1="386" x2="899.2" y2="394" stroke="#1a1a1a" stroke-width="0.6"/><circle cx="899.2" cy="390" r="2.8" fill="#1a1a1a"/><text x="400" y="394" font-size="11.5" text-anchor="end">shinylive · 웹 자산 본체</text><text x="945" y="394" font-size="10.5">v0.10.12 · 2026-06-01 <tspan fill="#a4262c" font-size="9">[app]</tspan></text><line x1="420" y1="426" x2="930" y2="426" stroke="#ddddd0" stroke-width="0.75"/><line x1="576.4" y1="422" x2="576.4" y2="430" stroke="#1a1a1a" stroke-width="0.6"/><line x1="594.5" y1="422" x2="594.5" y2="430" stroke="#1a1a1a" stroke-width="0.6"/><line x1="670.8" y1="422" x2="670.8" y2="430" stroke="#1a1a1a" stroke-width="0.6"/><line x1="710.0" y1="422" x2="710.0" y2="430" stroke="#1a1a1a" stroke-width="0.6"/><line x1="878.4" y1="422" x2="878.4" y2="430" stroke="#1a1a1a" stroke-width="0.6"/><line x1="880.8" y1="422" x2="880.8" y2="430" stroke="#1a1a1a" stroke-width="0.6"/><line x1="901.5" y1="422" x2="901.5" y2="430" stroke="#1a1a1a" stroke-width="0.6"/><circle cx="901.5" cy="426" r="2.8" fill="#1a1a1a"/><text x="400" y="430" font-size="11.5" text-anchor="end">r-shinylive · R 배포 패키지</text><text x="945" y="430" font-size="10.5">v0.5.0 · 2026-06-08 <tspan fill="#a4262c" font-size="9">[app]</tspan></text><line x1="420" y1="462" x2="930" y2="462" stroke="#ddddd0" stroke-width="0.75"/><line x1="440.4" y1="458" x2="440.4" y2="466" stroke="#1a1a1a" stroke-width="0.6"/><line x1="441.1" y1="458" x2="441.1" y2="466" stroke="#1a1a1a" stroke-width="0.6"/><line x1="445.8" y1="458" x2="445.8" y2="466" stroke="#1a1a1a" stroke-width="0.6"/><line x1="446.8" y1="458" x2="446.8" y2="466" stroke="#1a1a1a" stroke-width="0.6"/><line x1="447.5" y1="458" x2="447.5" y2="466" stroke="#1a1a1a" stroke-width="0.6"/><line x1="449.1" y1="458" x2="449.1" y2="466" stroke="#1a1a1a" stroke-width="0.6"/><line x1="459.2" y1="458" x2="459.2" y2="466" stroke="#1a1a1a" stroke-width="0.6"/><line x1="501.7" y1="458" x2="501.7" y2="466" stroke="#1a1a1a" stroke-width="0.6"/><line x1="515.8" y1="458" x2="515.8" y2="466" stroke="#1a1a1a" stroke-width="0.6"/><line x1="517.8" y1="458" x2="517.8" y2="466" stroke="#1a1a1a" stroke-width="0.6"/><line x1="520.1" y1="458" x2="520.1" y2="466" stroke="#1a1a1a" stroke-width="0.6"/><line x1="540.9" y1="458" x2="540.9" y2="466" stroke="#1a1a1a" stroke-width="0.6"/><line x1="552.6" y1="458" x2="552.6" y2="466" stroke="#1a1a1a" stroke-width="0.6"/><line x1="555.0" y1="458" x2="555.0" y2="466" stroke="#1a1a1a" stroke-width="0.6"/><line x1="560.0" y1="458" x2="560.0" y2="466" stroke="#1a1a1a" stroke-width="0.6"/><line x1="574.4" y1="458" x2="574.4" y2="466" stroke="#1a1a1a" stroke-width="0.6"/><line x1="583.1" y1="458" x2="583.1" y2="466" stroke="#1a1a1a" stroke-width="0.6"/><line x1="593.1" y1="458" x2="593.1" y2="466" stroke="#1a1a1a" stroke-width="0.6"/><line x1="599.5" y1="458" x2="599.5" y2="466" stroke="#1a1a1a" stroke-width="0.6"/><line x1="611.9" y1="458" x2="611.9" y2="466" stroke="#1a1a1a" stroke-width="0.6"/><line x1="612.2" y1="458" x2="612.2" y2="466" stroke="#1a1a1a" stroke-width="0.6"/><line x1="615.6" y1="458" x2="615.6" y2="466" stroke="#1a1a1a" stroke-width="0.6"/><line x1="624.9" y1="458" x2="624.9" y2="466" stroke="#1a1a1a" stroke-width="0.6"/><line x1="626.3" y1="458" x2="626.3" y2="466" stroke="#1a1a1a" stroke-width="0.6"/><line x1="639.3" y1="458" x2="639.3" y2="466" stroke="#1a1a1a" stroke-width="0.6"/><line x1="651.7" y1="458" x2="651.7" y2="466" stroke="#1a1a1a" stroke-width="0.6"/><line x1="653.7" y1="458" x2="653.7" y2="466" stroke="#1a1a1a" stroke-width="0.6"/><line x1="670.5" y1="458" x2="670.5" y2="466" stroke="#1a1a1a" stroke-width="0.6"/><line x1="673.2" y1="458" x2="673.2" y2="466" stroke="#1a1a1a" stroke-width="0.6"/><line x1="686.2" y1="458" x2="686.2" y2="466" stroke="#1a1a1a" stroke-width="0.6"/><line x1="705.0" y1="458" x2="705.0" y2="466" stroke="#1a1a1a" stroke-width="0.6"/><line x1="709.7" y1="458" x2="709.7" y2="466" stroke="#1a1a1a" stroke-width="0.6"/><line x1="721.0" y1="458" x2="721.0" y2="466" stroke="#1a1a1a" stroke-width="0.6"/><line x1="721.7" y1="458" x2="721.7" y2="466" stroke="#1a1a1a" stroke-width="0.6"/><line x1="746.8" y1="458" x2="746.8" y2="466" stroke="#1a1a1a" stroke-width="0.6"/><line x1="750.5" y1="458" x2="750.5" y2="466" stroke="#1a1a1a" stroke-width="0.6"/><line x1="752.2" y1="458" x2="752.2" y2="466" stroke="#1a1a1a" stroke-width="0.6"/><line x1="758.9" y1="458" x2="758.9" y2="466" stroke="#1a1a1a" stroke-width="0.6"/><line x1="811.5" y1="458" x2="811.5" y2="466" stroke="#1a1a1a" stroke-width="0.6"/><line x1="840.6" y1="458" x2="840.6" y2="466" stroke="#1a1a1a" stroke-width="0.6"/><line x1="876.4" y1="458" x2="876.4" y2="466" stroke="#1a1a1a" stroke-width="0.6"/><line x1="888.8" y1="458" x2="888.8" y2="466" stroke="#1a1a1a" stroke-width="0.6"/><line x1="895.5" y1="458" x2="895.5" y2="466" stroke="#1a1a1a" stroke-width="0.6"/><line x1="899.5" y1="458" x2="899.5" y2="466" stroke="#1a1a1a" stroke-width="0.6"/><circle cx="899.5" cy="462" r="2.8" fill="#1a1a1a"/><text x="400" y="466" font-size="11.5" text-anchor="end">py-shinylive · Python 배포 패키지</text><text x="945" y="466" font-size="10.5">v0.8.9 · 2026-06-02</text><line x1="420" y1="498" x2="930" y2="498" stroke="#ddddd0" stroke-width="0.75"/><circle cx="759.6" cy="498" r="2.8" fill="#fffff8" stroke="#1a1a1a" stroke-width="0.9"/><text x="400" y="502" font-size="11.5" text-anchor="end">quarto-ext/shinylive · Quarto 확장</text><text x="945" y="502" font-size="10.5">태그 없음 · 커밋 2025-04-10 <tspan fill="#a4262c" font-size="9">[app]</tspan></text><text x="400" y="515" font-size="8.5" fill="#888" text-anchor="end">얇은 래퍼 — 자산 버전만 따라감(유지 모드)</text>
    <g font-size="9.5" fill="#888">
      <text x="140" y="584">읽기 — 눈금 밀도가 개발 활동. webR·shinylive 계열·Quarto Live는 2026년에도 조밀(현역), quarto-webr는 2025-06 이후 공백(계승), 빈 원 = 릴리스 아닌 마지막 커밋.</text>
      <text x="140" y="600">빨간 [live]/[app] = 빛스탯2 채택 경로: live/ 사이트 = Quarto Live + webR · app 사이트(pages/) = Shinylive(자산·r-shinylive·Quarto 확장) + webR</text>
      <text x="140" y="616">출처 — api.github.com/repos/&#123;r-wasm/webr · pyodide/pyodide · r-wasm/quarto-live · coatless/quarto-webr · posit-dev/shinylive·r-shinylive·py-shinylive&#125;/releases</text>
    </g>
  </g>
</svg>